<mxfile host="app.diagrams.net" modified="2020-11-24T14:24:24.128Z" agent="5.0 (Windows NT 10.0; Win64; x64) AppleWebKit/537.36 (KHTML, like Gecko) Chrome/86.0.4240.198 Safari/537.36" etag="uExslwfGfSclrMjZmUBm" version="13.10.2" type="github">
  <diagram id="C5RBs43oDa-KdzZeNtuy" name="Page-1">
    <mxGraphModel dx="2557" dy="818" grid="1" gridSize="10" guides="1" tooltips="1" connect="1" arrows="1" fold="1" page="1" pageScale="1" pageWidth="827" pageHeight="1169" math="0" shadow="0">
      <root>
        <mxCell id="WIyWlLk6GJQsqaUBKTNV-0" />
        <mxCell id="WIyWlLk6GJQsqaUBKTNV-1" parent="WIyWlLk6GJQsqaUBKTNV-0" />
        <mxCell id="Lr3nLyAAVqgkOwrDRTjN-86" value="" style="rounded=0;whiteSpace=wrap;html=1;fillColor=#dae8fc;strokeColor=#6c8ebf;" vertex="1" parent="WIyWlLk6GJQsqaUBKTNV-1">
          <mxGeometry x="180" y="30" width="160" height="60" as="geometry" />
        </mxCell>
        <mxCell id="Lr3nLyAAVqgkOwrDRTjN-85" style="edgeStyle=orthogonalEdgeStyle;rounded=0;orthogonalLoop=1;jettySize=auto;html=1;exitX=0.5;exitY=1;exitDx=0;exitDy=0;entryX=0.5;entryY=0;entryDx=0;entryDy=0;" edge="1" parent="WIyWlLk6GJQsqaUBKTNV-1" source="WIyWlLk6GJQsqaUBKTNV-3" target="WIyWlLk6GJQsqaUBKTNV-6">
          <mxGeometry relative="1" as="geometry" />
        </mxCell>
        <mxCell id="WIyWlLk6GJQsqaUBKTNV-3" value="Ekran0" style="rounded=1;whiteSpace=wrap;html=1;fontSize=12;glass=0;strokeWidth=1;shadow=0;fillColor=#ffe6cc;strokeColor=#d79b00;" parent="WIyWlLk6GJQsqaUBKTNV-1" vertex="1">
          <mxGeometry x="200" y="40" width="120" height="40" as="geometry" />
        </mxCell>
        <mxCell id="WIyWlLk6GJQsqaUBKTNV-4" value="Doğru" style="rounded=0;html=1;jettySize=auto;orthogonalLoop=1;fontSize=11;endArrow=block;endFill=0;endSize=8;strokeWidth=1;shadow=0;labelBackgroundColor=none;edgeStyle=orthogonalEdgeStyle;entryX=0.5;entryY=0;entryDx=0;entryDy=0;" parent="WIyWlLk6GJQsqaUBKTNV-1" source="WIyWlLk6GJQsqaUBKTNV-6" target="Lr3nLyAAVqgkOwrDRTjN-0" edge="1">
          <mxGeometry x="-0.1429" y="-10" relative="1" as="geometry">
            <mxPoint as="offset" />
          </mxGeometry>
        </mxCell>
        <mxCell id="WIyWlLk6GJQsqaUBKTNV-5" value="Hatalı" style="edgeStyle=orthogonalEdgeStyle;rounded=0;html=1;jettySize=auto;orthogonalLoop=1;fontSize=11;endArrow=block;endFill=0;endSize=8;strokeWidth=1;shadow=0;labelBackgroundColor=none;" parent="WIyWlLk6GJQsqaUBKTNV-1" source="WIyWlLk6GJQsqaUBKTNV-6" target="WIyWlLk6GJQsqaUBKTNV-7" edge="1">
          <mxGeometry y="10" relative="1" as="geometry">
            <mxPoint as="offset" />
            <mxPoint x="370" y="170" as="targetPoint" />
          </mxGeometry>
        </mxCell>
        <mxCell id="WIyWlLk6GJQsqaUBKTNV-6" value="Kullanıcı Girişi" style="rhombus;whiteSpace=wrap;html=1;shadow=0;fontFamily=Helvetica;fontSize=12;align=center;strokeWidth=1;spacing=6;spacingTop=-4;fillColor=#f5f5f5;strokeColor=#666666;fontColor=#333333;" parent="WIyWlLk6GJQsqaUBKTNV-1" vertex="1">
          <mxGeometry x="210" y="120" width="100" height="80" as="geometry" />
        </mxCell>
        <mxCell id="Lr3nLyAAVqgkOwrDRTjN-12" style="edgeStyle=orthogonalEdgeStyle;rounded=0;orthogonalLoop=1;jettySize=auto;html=1;exitX=0.75;exitY=0;exitDx=0;exitDy=0;entryX=1;entryY=0.5;entryDx=0;entryDy=0;" edge="1" parent="WIyWlLk6GJQsqaUBKTNV-1" source="WIyWlLk6GJQsqaUBKTNV-7" target="WIyWlLk6GJQsqaUBKTNV-3">
          <mxGeometry relative="1" as="geometry">
            <mxPoint x="440" y="60" as="targetPoint" />
            <Array as="points">
              <mxPoint x="430" y="120" />
              <mxPoint x="430" y="60" />
            </Array>
          </mxGeometry>
        </mxCell>
        <mxCell id="WIyWlLk6GJQsqaUBKTNV-7" value="Ekran0.1" style="rounded=1;whiteSpace=wrap;html=1;fontSize=12;glass=0;strokeWidth=1;shadow=0;fillColor=#ffe6cc;strokeColor=#d79b00;" parent="WIyWlLk6GJQsqaUBKTNV-1" vertex="1">
          <mxGeometry x="390" y="120" width="90" height="80" as="geometry" />
        </mxCell>
        <mxCell id="WIyWlLk6GJQsqaUBKTNV-8" value="Örtük Anlamsal Arama" style="rounded=0;html=1;jettySize=auto;orthogonalLoop=1;fontSize=11;endArrow=block;endFill=0;endSize=8;strokeWidth=1;shadow=0;labelBackgroundColor=none;edgeStyle=orthogonalEdgeStyle;fontStyle=1" parent="WIyWlLk6GJQsqaUBKTNV-1" source="WIyWlLk6GJQsqaUBKTNV-10" target="WIyWlLk6GJQsqaUBKTNV-11" edge="1">
          <mxGeometry y="60" relative="1" as="geometry">
            <mxPoint as="offset" />
            <Array as="points">
              <mxPoint x="120" y="440" />
            </Array>
          </mxGeometry>
        </mxCell>
        <mxCell id="WIyWlLk6GJQsqaUBKTNV-9" value="Kelime Arama" style="edgeStyle=orthogonalEdgeStyle;rounded=0;html=1;jettySize=auto;orthogonalLoop=1;fontSize=11;endArrow=block;endFill=0;endSize=8;strokeWidth=1;shadow=0;labelBackgroundColor=none;entryX=0;entryY=0.5;entryDx=0;entryDy=0;fontStyle=1" parent="WIyWlLk6GJQsqaUBKTNV-1" source="WIyWlLk6GJQsqaUBKTNV-10" target="WIyWlLk6GJQsqaUBKTNV-12" edge="1">
          <mxGeometry y="10" relative="1" as="geometry">
            <mxPoint as="offset" />
            <mxPoint x="270" y="320" as="targetPoint" />
          </mxGeometry>
        </mxCell>
        <mxCell id="Lr3nLyAAVqgkOwrDRTjN-11" value="Açık Soru Cevaplama" style="edgeStyle=orthogonalEdgeStyle;rounded=0;orthogonalLoop=1;jettySize=auto;html=1;exitX=0;exitY=0.5;exitDx=0;exitDy=0;entryX=1;entryY=0.5;entryDx=0;entryDy=0;fontStyle=1" edge="1" parent="WIyWlLk6GJQsqaUBKTNV-1" source="WIyWlLk6GJQsqaUBKTNV-10" target="Lr3nLyAAVqgkOwrDRTjN-10">
          <mxGeometry y="-20" relative="1" as="geometry">
            <mxPoint as="offset" />
          </mxGeometry>
        </mxCell>
        <mxCell id="Lr3nLyAAVqgkOwrDRTjN-54" style="edgeStyle=orthogonalEdgeStyle;rounded=0;orthogonalLoop=1;jettySize=auto;html=1;exitX=0;exitY=1;exitDx=0;exitDy=0;entryX=1;entryY=0.5;entryDx=0;entryDy=0;" edge="1" parent="WIyWlLk6GJQsqaUBKTNV-1" source="WIyWlLk6GJQsqaUBKTNV-10" target="Lr3nLyAAVqgkOwrDRTjN-53">
          <mxGeometry relative="1" as="geometry">
            <Array as="points">
              <mxPoint y="340" />
              <mxPoint y="490" />
            </Array>
          </mxGeometry>
        </mxCell>
        <mxCell id="WIyWlLk6GJQsqaUBKTNV-10" value="Genel Arama Seçimleri" style="rhombus;whiteSpace=wrap;html=1;shadow=0;fontFamily=Helvetica;fontSize=12;align=center;strokeWidth=1;spacing=6;spacingTop=-4;fillColor=#f5f5f5;strokeColor=#666666;fontColor=#333333;" parent="WIyWlLk6GJQsqaUBKTNV-1" vertex="1">
          <mxGeometry x="70" y="280" width="100" height="80" as="geometry" />
        </mxCell>
        <mxCell id="Lr3nLyAAVqgkOwrDRTjN-84" style="edgeStyle=orthogonalEdgeStyle;rounded=0;orthogonalLoop=1;jettySize=auto;html=1;exitX=0.5;exitY=1;exitDx=0;exitDy=0;entryX=0.5;entryY=0;entryDx=0;entryDy=0;" edge="1" parent="WIyWlLk6GJQsqaUBKTNV-1" source="WIyWlLk6GJQsqaUBKTNV-11" target="Lr3nLyAAVqgkOwrDRTjN-72">
          <mxGeometry relative="1" as="geometry" />
        </mxCell>
        <mxCell id="WIyWlLk6GJQsqaUBKTNV-11" value="Örtük Anlamsal Arama &lt;br&gt;(Ekran3/Ekran3.4)" style="rounded=1;whiteSpace=wrap;html=1;fontSize=12;glass=0;strokeWidth=1;shadow=0;fillColor=#d5e8d4;strokeColor=#82b366;" parent="WIyWlLk6GJQsqaUBKTNV-1" vertex="1">
          <mxGeometry x="60" y="460" width="120" height="60" as="geometry" />
        </mxCell>
        <mxCell id="Lr3nLyAAVqgkOwrDRTjN-5" style="edgeStyle=orthogonalEdgeStyle;rounded=0;orthogonalLoop=1;jettySize=auto;html=1;exitX=1;exitY=0.5;exitDx=0;exitDy=0;entryX=0;entryY=0.5;entryDx=0;entryDy=0;" edge="1" parent="WIyWlLk6GJQsqaUBKTNV-1" source="WIyWlLk6GJQsqaUBKTNV-12" target="Lr3nLyAAVqgkOwrDRTjN-14">
          <mxGeometry relative="1" as="geometry">
            <mxPoint x="551" y="260" as="sourcePoint" />
          </mxGeometry>
        </mxCell>
        <mxCell id="WIyWlLk6GJQsqaUBKTNV-12" value="Kelime Arama&lt;br&gt;(Ekran1)" style="rounded=1;whiteSpace=wrap;html=1;fontSize=12;glass=0;strokeWidth=1;shadow=0;fillColor=#d5e8d4;strokeColor=#82b366;" parent="WIyWlLk6GJQsqaUBKTNV-1" vertex="1">
          <mxGeometry x="340" y="280" width="110" height="80" as="geometry" />
        </mxCell>
        <mxCell id="Lr3nLyAAVqgkOwrDRTjN-0" value="Ekran0.2" style="rounded=1;whiteSpace=wrap;html=1;fontSize=12;glass=0;strokeWidth=1;shadow=0;arcSize=25;fillColor=#ffe6cc;strokeColor=#d79b00;" vertex="1" parent="WIyWlLk6GJQsqaUBKTNV-1">
          <mxGeometry x="60" y="210" width="120" height="40" as="geometry" />
        </mxCell>
        <mxCell id="Lr3nLyAAVqgkOwrDRTjN-1" value="" style="endArrow=classic;html=1;exitX=0.5;exitY=1;exitDx=0;exitDy=0;entryX=0.5;entryY=0;entryDx=0;entryDy=0;" edge="1" parent="WIyWlLk6GJQsqaUBKTNV-1" source="Lr3nLyAAVqgkOwrDRTjN-0" target="WIyWlLk6GJQsqaUBKTNV-10">
          <mxGeometry width="50" height="50" relative="1" as="geometry">
            <mxPoint x="390" y="370" as="sourcePoint" />
            <mxPoint x="440" y="320" as="targetPoint" />
          </mxGeometry>
        </mxCell>
        <mxCell id="Lr3nLyAAVqgkOwrDRTjN-8" value="Evet" style="edgeStyle=orthogonalEdgeStyle;rounded=0;orthogonalLoop=1;jettySize=auto;html=1;entryX=0;entryY=0.5;entryDx=0;entryDy=0;exitX=0.5;exitY=0;exitDx=0;exitDy=0;" edge="1" parent="WIyWlLk6GJQsqaUBKTNV-1" source="Lr3nLyAAVqgkOwrDRTjN-4" target="Lr3nLyAAVqgkOwrDRTjN-6">
          <mxGeometry x="0.3571" y="15" relative="1" as="geometry">
            <Array as="points">
              <mxPoint x="605" y="85" />
            </Array>
            <mxPoint as="offset" />
          </mxGeometry>
        </mxCell>
        <mxCell id="Lr3nLyAAVqgkOwrDRTjN-16" value="Hayır" style="edgeStyle=orthogonalEdgeStyle;rounded=0;orthogonalLoop=1;jettySize=auto;html=1;exitX=1;exitY=0.5;exitDx=0;exitDy=0;entryX=0.75;entryY=0;entryDx=0;entryDy=0;" edge="1" parent="WIyWlLk6GJQsqaUBKTNV-1" source="Lr3nLyAAVqgkOwrDRTjN-4" target="Lr3nLyAAVqgkOwrDRTjN-14">
          <mxGeometry x="0.1958" y="-10" relative="1" as="geometry">
            <mxPoint x="680" y="259" as="targetPoint" />
            <Array as="points">
              <mxPoint x="698" y="165" />
            </Array>
            <mxPoint as="offset" />
          </mxGeometry>
        </mxCell>
        <mxCell id="Lr3nLyAAVqgkOwrDRTjN-4" value="Space Karakteri" style="rhombus;whiteSpace=wrap;html=1;shadow=0;fontFamily=Helvetica;fontSize=12;align=center;strokeWidth=1;spacing=6;spacingTop=-4;fillColor=#f5f5f5;strokeColor=#666666;fontColor=#333333;" vertex="1" parent="WIyWlLk6GJQsqaUBKTNV-1">
          <mxGeometry x="553" y="125" width="100" height="80" as="geometry" />
        </mxCell>
        <mxCell id="Lr3nLyAAVqgkOwrDRTjN-30" style="edgeStyle=orthogonalEdgeStyle;rounded=0;orthogonalLoop=1;jettySize=auto;html=1;exitX=1;exitY=0.5;exitDx=0;exitDy=0;entryX=0;entryY=0.5;entryDx=0;entryDy=0;" edge="1" parent="WIyWlLk6GJQsqaUBKTNV-1" source="Lr3nLyAAVqgkOwrDRTjN-6" target="Lr3nLyAAVqgkOwrDRTjN-7">
          <mxGeometry relative="1" as="geometry">
            <mxPoint x="1011" y="170" as="targetPoint" />
          </mxGeometry>
        </mxCell>
        <mxCell id="Lr3nLyAAVqgkOwrDRTjN-6" value="Sözlük Seçeneklerinin Gösterilmesi&lt;br&gt;Ekran1.1" style="rounded=1;whiteSpace=wrap;html=1;fontSize=12;glass=0;strokeWidth=1;shadow=0;fillColor=#ffe6cc;strokeColor=#d79b00;" vertex="1" parent="WIyWlLk6GJQsqaUBKTNV-1">
          <mxGeometry x="780" y="45" width="110" height="80" as="geometry" />
        </mxCell>
        <mxCell id="Lr3nLyAAVqgkOwrDRTjN-39" value="Evet" style="edgeStyle=orthogonalEdgeStyle;rounded=0;orthogonalLoop=1;jettySize=auto;html=1;entryX=0.5;entryY=0;entryDx=0;entryDy=0;exitX=0.5;exitY=1;exitDx=0;exitDy=0;" edge="1" parent="WIyWlLk6GJQsqaUBKTNV-1" source="Lr3nLyAAVqgkOwrDRTjN-7" target="Lr3nLyAAVqgkOwrDRTjN-38">
          <mxGeometry relative="1" as="geometry">
            <mxPoint x="1061" y="215" as="sourcePoint" />
          </mxGeometry>
        </mxCell>
        <mxCell id="Lr3nLyAAVqgkOwrDRTjN-7" value="Seçim Yapıldı mı?" style="rhombus;whiteSpace=wrap;html=1;shadow=0;fontFamily=Helvetica;fontSize=12;align=center;strokeWidth=1;spacing=6;spacingTop=-4;fillColor=#f5f5f5;strokeColor=#666666;fontColor=#333333;" vertex="1" parent="WIyWlLk6GJQsqaUBKTNV-1">
          <mxGeometry x="1011" y="40" width="100" height="90" as="geometry" />
        </mxCell>
        <mxCell id="Lr3nLyAAVqgkOwrDRTjN-57" style="edgeStyle=orthogonalEdgeStyle;rounded=0;orthogonalLoop=1;jettySize=auto;html=1;exitX=0;exitY=0.5;exitDx=0;exitDy=0;entryX=1;entryY=0.5;entryDx=0;entryDy=0;" edge="1" parent="WIyWlLk6GJQsqaUBKTNV-1" source="Lr3nLyAAVqgkOwrDRTjN-10" target="Lr3nLyAAVqgkOwrDRTjN-56">
          <mxGeometry relative="1" as="geometry" />
        </mxCell>
        <mxCell id="Lr3nLyAAVqgkOwrDRTjN-10" value="Açık Soru Cevaplama&lt;br&gt;(Ekran2/Ekran2.2)" style="rounded=1;whiteSpace=wrap;html=1;fontSize=12;glass=0;strokeWidth=1;shadow=0;fillColor=#d5e8d4;strokeColor=#82b366;" vertex="1" parent="WIyWlLk6GJQsqaUBKTNV-1">
          <mxGeometry x="-210" y="300" width="120" height="40" as="geometry" />
        </mxCell>
        <mxCell id="Lr3nLyAAVqgkOwrDRTjN-15" style="edgeStyle=orthogonalEdgeStyle;rounded=0;orthogonalLoop=1;jettySize=auto;html=1;exitX=0.25;exitY=0;exitDx=0;exitDy=0;entryX=0.5;entryY=1;entryDx=0;entryDy=0;" edge="1" parent="WIyWlLk6GJQsqaUBKTNV-1" source="Lr3nLyAAVqgkOwrDRTjN-14" target="Lr3nLyAAVqgkOwrDRTjN-4">
          <mxGeometry relative="1" as="geometry" />
        </mxCell>
        <mxCell id="Lr3nLyAAVqgkOwrDRTjN-22" style="edgeStyle=orthogonalEdgeStyle;rounded=0;orthogonalLoop=1;jettySize=auto;html=1;exitX=0.5;exitY=1;exitDx=0;exitDy=0;entryX=0.5;entryY=0;entryDx=0;entryDy=0;" edge="1" parent="WIyWlLk6GJQsqaUBKTNV-1" source="Lr3nLyAAVqgkOwrDRTjN-14" target="Lr3nLyAAVqgkOwrDRTjN-17">
          <mxGeometry relative="1" as="geometry" />
        </mxCell>
        <mxCell id="Lr3nLyAAVqgkOwrDRTjN-41" style="edgeStyle=orthogonalEdgeStyle;rounded=0;orthogonalLoop=1;jettySize=auto;html=1;exitX=1;exitY=0.5;exitDx=0;exitDy=0;entryX=0;entryY=0.5;entryDx=0;entryDy=0;" edge="1" parent="WIyWlLk6GJQsqaUBKTNV-1" source="Lr3nLyAAVqgkOwrDRTjN-14" target="Lr3nLyAAVqgkOwrDRTjN-42">
          <mxGeometry relative="1" as="geometry">
            <mxPoint x="1133.2068628771551" y="345.1379310344828" as="targetPoint" />
          </mxGeometry>
        </mxCell>
        <mxCell id="Lr3nLyAAVqgkOwrDRTjN-14" value="Metin girişi" style="rounded=1;whiteSpace=wrap;html=1;fontSize=12;glass=0;strokeWidth=1;shadow=0;fillColor=#b0e3e6;strokeColor=#0e8088;" vertex="1" parent="WIyWlLk6GJQsqaUBKTNV-1">
          <mxGeometry x="555" y="280" width="190" height="80" as="geometry" />
        </mxCell>
        <mxCell id="Lr3nLyAAVqgkOwrDRTjN-23" value="VE Butonuna tıklanılıdı" style="edgeStyle=orthogonalEdgeStyle;rounded=0;orthogonalLoop=1;jettySize=auto;html=1;exitX=0;exitY=0.5;exitDx=0;exitDy=0;entryX=0.5;entryY=1;entryDx=0;entryDy=0;" edge="1" parent="WIyWlLk6GJQsqaUBKTNV-1" source="Lr3nLyAAVqgkOwrDRTjN-17" target="Lr3nLyAAVqgkOwrDRTjN-18">
          <mxGeometry x="0.0294" y="20" relative="1" as="geometry">
            <mxPoint as="offset" />
          </mxGeometry>
        </mxCell>
        <mxCell id="Lr3nLyAAVqgkOwrDRTjN-24" value="VEYA Butonuna tıklanıldı" style="edgeStyle=orthogonalEdgeStyle;rounded=0;orthogonalLoop=1;jettySize=auto;html=1;exitX=1;exitY=0.5;exitDx=0;exitDy=0;entryX=0.5;entryY=1;entryDx=0;entryDy=0;" edge="1" parent="WIyWlLk6GJQsqaUBKTNV-1" source="Lr3nLyAAVqgkOwrDRTjN-17" target="Lr3nLyAAVqgkOwrDRTjN-20">
          <mxGeometry x="0.0159" y="-20" relative="1" as="geometry">
            <mxPoint as="offset" />
          </mxGeometry>
        </mxCell>
        <mxCell id="Lr3nLyAAVqgkOwrDRTjN-27" value="Kavram Butonuna tıklanıldı" style="edgeStyle=orthogonalEdgeStyle;rounded=0;orthogonalLoop=1;jettySize=auto;html=1;entryX=0.25;entryY=0;entryDx=0;entryDy=0;" edge="1" parent="WIyWlLk6GJQsqaUBKTNV-1" source="Lr3nLyAAVqgkOwrDRTjN-17" target="Lr3nLyAAVqgkOwrDRTjN-25">
          <mxGeometry relative="1" as="geometry" />
        </mxCell>
        <mxCell id="Lr3nLyAAVqgkOwrDRTjN-17" value="Buton Girişleri" style="rhombus;whiteSpace=wrap;html=1;shadow=0;fontFamily=Helvetica;fontSize=12;align=center;strokeWidth=1;spacing=6;spacingTop=-4;fillColor=#f5f5f5;strokeColor=#666666;fontColor=#333333;" vertex="1" parent="WIyWlLk6GJQsqaUBKTNV-1">
          <mxGeometry x="600" y="420" width="100" height="80" as="geometry" />
        </mxCell>
        <mxCell id="Lr3nLyAAVqgkOwrDRTjN-19" style="edgeStyle=orthogonalEdgeStyle;rounded=0;orthogonalLoop=1;jettySize=auto;html=1;exitX=1;exitY=0.5;exitDx=0;exitDy=0;entryX=0.25;entryY=1;entryDx=0;entryDy=0;" edge="1" parent="WIyWlLk6GJQsqaUBKTNV-1" source="Lr3nLyAAVqgkOwrDRTjN-18" target="Lr3nLyAAVqgkOwrDRTjN-14">
          <mxGeometry relative="1" as="geometry" />
        </mxCell>
        <mxCell id="Lr3nLyAAVqgkOwrDRTjN-18" value="Metine &quot;&amp;amp;&quot; eklenir&lt;br&gt;Ekran1.4" style="rounded=1;whiteSpace=wrap;html=1;fontSize=12;glass=0;strokeWidth=1;shadow=0;fillColor=#ffe6cc;strokeColor=#d79b00;" vertex="1" parent="WIyWlLk6GJQsqaUBKTNV-1">
          <mxGeometry x="451" y="380" width="110" height="50" as="geometry" />
        </mxCell>
        <mxCell id="Lr3nLyAAVqgkOwrDRTjN-21" style="edgeStyle=orthogonalEdgeStyle;rounded=0;orthogonalLoop=1;jettySize=auto;html=1;exitX=0;exitY=0.5;exitDx=0;exitDy=0;entryX=0.75;entryY=1;entryDx=0;entryDy=0;" edge="1" parent="WIyWlLk6GJQsqaUBKTNV-1" source="Lr3nLyAAVqgkOwrDRTjN-20" target="Lr3nLyAAVqgkOwrDRTjN-14">
          <mxGeometry relative="1" as="geometry" />
        </mxCell>
        <mxCell id="Lr3nLyAAVqgkOwrDRTjN-20" value="Metine &quot;|&quot; eklenir&lt;br&gt;Ekran1.4" style="rounded=1;whiteSpace=wrap;html=1;fontSize=12;glass=0;strokeWidth=1;shadow=0;fillColor=#ffe6cc;strokeColor=#d79b00;" vertex="1" parent="WIyWlLk6GJQsqaUBKTNV-1">
          <mxGeometry x="791" y="380" width="115" height="50" as="geometry" />
        </mxCell>
        <mxCell id="Lr3nLyAAVqgkOwrDRTjN-31" style="edgeStyle=orthogonalEdgeStyle;rounded=0;orthogonalLoop=1;jettySize=auto;html=1;exitX=1;exitY=0.5;exitDx=0;exitDy=0;entryX=0;entryY=0.5;entryDx=0;entryDy=0;" edge="1" parent="WIyWlLk6GJQsqaUBKTNV-1" source="Lr3nLyAAVqgkOwrDRTjN-25" target="Lr3nLyAAVqgkOwrDRTjN-32">
          <mxGeometry relative="1" as="geometry">
            <mxPoint x="801" y="580" as="targetPoint" />
            <Array as="points">
              <mxPoint x="805" y="618" />
            </Array>
          </mxGeometry>
        </mxCell>
        <mxCell id="Lr3nLyAAVqgkOwrDRTjN-25" value="Metine &amp;lt;kavramsal&amp;gt; eklenir. Kavram Seçenekleri Gösterilir&lt;br&gt;Ekran1.6" style="rounded=1;whiteSpace=wrap;html=1;fontSize=12;glass=0;strokeWidth=1;shadow=0;fillColor=#ffe6cc;strokeColor=#d79b00;" vertex="1" parent="WIyWlLk6GJQsqaUBKTNV-1">
          <mxGeometry x="600" y="585" width="205" height="60" as="geometry" />
        </mxCell>
        <mxCell id="Lr3nLyAAVqgkOwrDRTjN-36" value="Evet" style="edgeStyle=orthogonalEdgeStyle;rounded=0;orthogonalLoop=1;jettySize=auto;html=1;exitX=0.5;exitY=0;exitDx=0;exitDy=0;entryX=0.5;entryY=1;entryDx=0;entryDy=0;" edge="1" parent="WIyWlLk6GJQsqaUBKTNV-1" source="Lr3nLyAAVqgkOwrDRTjN-32" target="Lr3nLyAAVqgkOwrDRTjN-35">
          <mxGeometry relative="1" as="geometry" />
        </mxCell>
        <mxCell id="Lr3nLyAAVqgkOwrDRTjN-32" value="Seçim &lt;br&gt;Yapıldı mı?" style="rhombus;whiteSpace=wrap;html=1;shadow=0;fontFamily=Helvetica;fontSize=12;align=center;strokeWidth=1;spacing=6;spacingTop=-4;fillColor=#f5f5f5;strokeColor=#666666;fontColor=#333333;" vertex="1" parent="WIyWlLk6GJQsqaUBKTNV-1">
          <mxGeometry x="1002" y="570" width="109" height="95" as="geometry" />
        </mxCell>
        <mxCell id="Lr3nLyAAVqgkOwrDRTjN-37" style="edgeStyle=orthogonalEdgeStyle;rounded=0;orthogonalLoop=1;jettySize=auto;html=1;exitX=0.5;exitY=0;exitDx=0;exitDy=0;entryX=1.013;entryY=0.867;entryDx=0;entryDy=0;entryPerimeter=0;" edge="1" parent="WIyWlLk6GJQsqaUBKTNV-1" source="Lr3nLyAAVqgkOwrDRTjN-35" target="Lr3nLyAAVqgkOwrDRTjN-14">
          <mxGeometry relative="1" as="geometry">
            <Array as="points">
              <mxPoint x="1061" y="349" />
            </Array>
          </mxGeometry>
        </mxCell>
        <mxCell id="Lr3nLyAAVqgkOwrDRTjN-35" value="Metine kavram eklenir&lt;br&gt;Ekran1.6" style="rounded=1;whiteSpace=wrap;html=1;fontSize=12;glass=0;strokeWidth=1;shadow=0;fillColor=#ffe6cc;strokeColor=#d79b00;" vertex="1" parent="WIyWlLk6GJQsqaUBKTNV-1">
          <mxGeometry x="999" y="395" width="115" height="60" as="geometry" />
        </mxCell>
        <mxCell id="Lr3nLyAAVqgkOwrDRTjN-40" style="edgeStyle=orthogonalEdgeStyle;rounded=0;orthogonalLoop=1;jettySize=auto;html=1;exitX=0.5;exitY=1;exitDx=0;exitDy=0;entryX=1;entryY=0.25;entryDx=0;entryDy=0;" edge="1" parent="WIyWlLk6GJQsqaUBKTNV-1" source="Lr3nLyAAVqgkOwrDRTjN-38" target="Lr3nLyAAVqgkOwrDRTjN-14">
          <mxGeometry relative="1" as="geometry">
            <mxPoint x="680" y="320" as="targetPoint" />
            <Array as="points">
              <mxPoint x="1061" y="300" />
            </Array>
          </mxGeometry>
        </mxCell>
        <mxCell id="Lr3nLyAAVqgkOwrDRTjN-38" value="Metine seçim 1,2,3 şeklinde eklenir&lt;br&gt;Ekran1.2" style="rounded=1;whiteSpace=wrap;html=1;fontSize=12;glass=0;strokeWidth=1;shadow=0;fillColor=#ffe6cc;strokeColor=#d79b00;" vertex="1" parent="WIyWlLk6GJQsqaUBKTNV-1">
          <mxGeometry x="1003.5" y="180" width="115" height="60" as="geometry" />
        </mxCell>
        <mxCell id="Lr3nLyAAVqgkOwrDRTjN-51" value="tıklanıldı" style="edgeStyle=orthogonalEdgeStyle;rounded=0;orthogonalLoop=1;jettySize=auto;html=1;exitX=1;exitY=0.5;exitDx=0;exitDy=0;entryX=0;entryY=0.5;entryDx=0;entryDy=0;" edge="1" parent="WIyWlLk6GJQsqaUBKTNV-1" source="Lr3nLyAAVqgkOwrDRTjN-42" target="Lr3nLyAAVqgkOwrDRTjN-43">
          <mxGeometry x="0.0083" y="20" relative="1" as="geometry">
            <mxPoint as="offset" />
          </mxGeometry>
        </mxCell>
        <mxCell id="Lr3nLyAAVqgkOwrDRTjN-42" value="&quot;Ara&quot; Buton" style="rhombus;whiteSpace=wrap;html=1;shadow=0;fontFamily=Helvetica;fontSize=12;align=center;strokeWidth=1;spacing=6;spacingTop=-4;fillColor=#f5f5f5;strokeColor=#666666;fontColor=#333333;" vertex="1" parent="WIyWlLk6GJQsqaUBKTNV-1">
          <mxGeometry x="1080" y="280" width="89" height="80" as="geometry" />
        </mxCell>
        <mxCell id="Lr3nLyAAVqgkOwrDRTjN-49" style="edgeStyle=orthogonalEdgeStyle;rounded=0;orthogonalLoop=1;jettySize=auto;html=1;exitX=0.5;exitY=1;exitDx=0;exitDy=0;entryX=0;entryY=0.5;entryDx=0;entryDy=0;" edge="1" parent="WIyWlLk6GJQsqaUBKTNV-1" source="Lr3nLyAAVqgkOwrDRTjN-43" target="Lr3nLyAAVqgkOwrDRTjN-44">
          <mxGeometry relative="1" as="geometry">
            <Array as="points">
              <mxPoint x="1345" y="435" />
            </Array>
          </mxGeometry>
        </mxCell>
        <mxCell id="Lr3nLyAAVqgkOwrDRTjN-43" value="Arama &lt;br&gt;Sonuçlarının Gösterimi&amp;nbsp;&lt;br&gt;Ekran1.3/5/7" style="rounded=1;whiteSpace=wrap;html=1;fontSize=12;glass=0;strokeWidth=1;shadow=0;fillColor=#ffe6cc;strokeColor=#d79b00;" vertex="1" parent="WIyWlLk6GJQsqaUBKTNV-1">
          <mxGeometry x="1290" y="280" width="110" height="80" as="geometry" />
        </mxCell>
        <mxCell id="Lr3nLyAAVqgkOwrDRTjN-50" value="tıklanıldı" style="edgeStyle=orthogonalEdgeStyle;rounded=0;orthogonalLoop=1;jettySize=auto;html=1;exitX=1;exitY=0.5;exitDx=0;exitDy=0;entryX=0;entryY=0.5;entryDx=0;entryDy=0;" edge="1" parent="WIyWlLk6GJQsqaUBKTNV-1" source="Lr3nLyAAVqgkOwrDRTjN-44" target="Lr3nLyAAVqgkOwrDRTjN-45">
          <mxGeometry y="15" relative="1" as="geometry">
            <mxPoint as="offset" />
          </mxGeometry>
        </mxCell>
        <mxCell id="Lr3nLyAAVqgkOwrDRTjN-44" value="&quot;Dokümana &lt;br&gt;Git&quot;&amp;nbsp; Butonu" style="rhombus;whiteSpace=wrap;html=1;shadow=0;fontFamily=Helvetica;fontSize=12;align=center;strokeWidth=1;spacing=6;spacingTop=-4;fillColor=#f5f5f5;strokeColor=#666666;fontColor=#333333;" vertex="1" parent="WIyWlLk6GJQsqaUBKTNV-1">
          <mxGeometry x="1390" y="380" width="130" height="110" as="geometry" />
        </mxCell>
        <mxCell id="Lr3nLyAAVqgkOwrDRTjN-47" style="edgeStyle=orthogonalEdgeStyle;rounded=0;orthogonalLoop=1;jettySize=auto;html=1;exitX=0.5;exitY=0;exitDx=0;exitDy=0;entryX=0.5;entryY=1;entryDx=0;entryDy=0;" edge="1" parent="WIyWlLk6GJQsqaUBKTNV-1" source="Lr3nLyAAVqgkOwrDRTjN-45" target="Lr3nLyAAVqgkOwrDRTjN-46">
          <mxGeometry relative="1" as="geometry">
            <mxPoint x="1700" y="322" as="targetPoint" />
          </mxGeometry>
        </mxCell>
        <mxCell id="Lr3nLyAAVqgkOwrDRTjN-45" value="Doküman Detay Gösterimi&amp;nbsp;&lt;br&gt;Ekran1.8" style="rounded=1;whiteSpace=wrap;html=1;fontSize=12;glass=0;strokeWidth=1;shadow=0;fillColor=#ffe6cc;strokeColor=#d79b00;" vertex="1" parent="WIyWlLk6GJQsqaUBKTNV-1">
          <mxGeometry x="1600" y="395" width="110" height="80" as="geometry" />
        </mxCell>
        <mxCell id="Lr3nLyAAVqgkOwrDRTjN-48" value="tıklanıldı" style="edgeStyle=orthogonalEdgeStyle;rounded=0;orthogonalLoop=1;jettySize=auto;html=1;entryX=0.5;entryY=0;entryDx=0;entryDy=0;" edge="1" parent="WIyWlLk6GJQsqaUBKTNV-1" source="Lr3nLyAAVqgkOwrDRTjN-46" target="Lr3nLyAAVqgkOwrDRTjN-43">
          <mxGeometry x="0.037" y="-15" relative="1" as="geometry">
            <mxPoint x="1701.0000000000005" y="195" as="sourcePoint" />
            <mxPoint as="offset" />
          </mxGeometry>
        </mxCell>
        <mxCell id="Lr3nLyAAVqgkOwrDRTjN-46" value="&quot;Arama &lt;br&gt;Sonuçlarına Dön&quot; Butonu" style="rhombus;whiteSpace=wrap;html=1;shadow=0;fontFamily=Helvetica;fontSize=12;align=center;strokeWidth=1;spacing=6;spacingTop=-4;fillColor=#f5f5f5;strokeColor=#666666;fontColor=#333333;" vertex="1" parent="WIyWlLk6GJQsqaUBKTNV-1">
          <mxGeometry x="1590" y="200" width="130" height="110" as="geometry" />
        </mxCell>
        <mxCell id="Lr3nLyAAVqgkOwrDRTjN-55" style="edgeStyle=orthogonalEdgeStyle;rounded=0;orthogonalLoop=1;jettySize=auto;html=1;exitX=0;exitY=0.5;exitDx=0;exitDy=0;entryX=0;entryY=0.5;entryDx=0;entryDy=0;" edge="1" parent="WIyWlLk6GJQsqaUBKTNV-1" source="Lr3nLyAAVqgkOwrDRTjN-53" target="WIyWlLk6GJQsqaUBKTNV-3">
          <mxGeometry relative="1" as="geometry">
            <Array as="points">
              <mxPoint x="-620" y="490" />
              <mxPoint x="-620" y="60" />
            </Array>
          </mxGeometry>
        </mxCell>
        <mxCell id="Lr3nLyAAVqgkOwrDRTjN-53" value="Çıkış" style="rounded=1;whiteSpace=wrap;html=1;fontSize=12;glass=0;strokeWidth=1;shadow=0;fillColor=#f8cecc;strokeColor=#b85450;" vertex="1" parent="WIyWlLk6GJQsqaUBKTNV-1">
          <mxGeometry x="-340" y="460" width="120" height="60" as="geometry" />
        </mxCell>
        <mxCell id="Lr3nLyAAVqgkOwrDRTjN-71" style="edgeStyle=orthogonalEdgeStyle;rounded=0;orthogonalLoop=1;jettySize=auto;html=1;exitX=0;exitY=0.5;exitDx=0;exitDy=0;entryX=1;entryY=0.5;entryDx=0;entryDy=0;" edge="1" parent="WIyWlLk6GJQsqaUBKTNV-1" source="Lr3nLyAAVqgkOwrDRTjN-56" target="Lr3nLyAAVqgkOwrDRTjN-58">
          <mxGeometry relative="1" as="geometry" />
        </mxCell>
        <mxCell id="Lr3nLyAAVqgkOwrDRTjN-56" value="Metin Girişi&lt;br&gt;Ekran2.1" style="rounded=1;whiteSpace=wrap;html=1;fontSize=12;glass=0;strokeWidth=1;shadow=0;fillColor=#b0e3e6;strokeColor=#0e8088;" vertex="1" parent="WIyWlLk6GJQsqaUBKTNV-1">
          <mxGeometry x="-413" y="290" width="140" height="60" as="geometry" />
        </mxCell>
        <mxCell id="Lr3nLyAAVqgkOwrDRTjN-59" value="tıklanıldığında" style="edgeStyle=orthogonalEdgeStyle;rounded=0;orthogonalLoop=1;jettySize=auto;html=1;exitX=0.5;exitY=0;exitDx=0;exitDy=0;entryX=0;entryY=0.5;entryDx=0;entryDy=0;" edge="1" parent="WIyWlLk6GJQsqaUBKTNV-1" source="Lr3nLyAAVqgkOwrDRTjN-58" target="Lr3nLyAAVqgkOwrDRTjN-60">
          <mxGeometry relative="1" as="geometry">
            <mxPoint x="-520" y="170" as="targetPoint" />
          </mxGeometry>
        </mxCell>
        <mxCell id="Lr3nLyAAVqgkOwrDRTjN-58" value="&quot;Sor&quot; Butonu" style="rhombus;whiteSpace=wrap;html=1;shadow=0;fontFamily=Helvetica;fontSize=12;align=center;strokeWidth=1;spacing=6;spacingTop=-4;fillColor=#f5f5f5;strokeColor=#666666;fontColor=#333333;" vertex="1" parent="WIyWlLk6GJQsqaUBKTNV-1">
          <mxGeometry x="-570" y="280" width="100" height="80" as="geometry" />
        </mxCell>
        <mxCell id="Lr3nLyAAVqgkOwrDRTjN-67" style="edgeStyle=orthogonalEdgeStyle;rounded=0;orthogonalLoop=1;jettySize=auto;html=1;exitX=1;exitY=0.5;exitDx=0;exitDy=0;entryX=0;entryY=0.5;entryDx=0;entryDy=0;" edge="1" parent="WIyWlLk6GJQsqaUBKTNV-1" source="Lr3nLyAAVqgkOwrDRTjN-60" target="Lr3nLyAAVqgkOwrDRTjN-62">
          <mxGeometry relative="1" as="geometry" />
        </mxCell>
        <mxCell id="Lr3nLyAAVqgkOwrDRTjN-60" value="Ekran2.3" style="rounded=1;whiteSpace=wrap;html=1;fontSize=12;glass=0;strokeWidth=1;shadow=0;fillColor=#ffe6cc;strokeColor=#d79b00;" vertex="1" parent="WIyWlLk6GJQsqaUBKTNV-1">
          <mxGeometry x="-460" y="139" width="120" height="40" as="geometry" />
        </mxCell>
        <mxCell id="Lr3nLyAAVqgkOwrDRTjN-66" style="edgeStyle=orthogonalEdgeStyle;rounded=0;orthogonalLoop=1;jettySize=auto;html=1;exitX=1;exitY=0.5;exitDx=0;exitDy=0;entryX=0;entryY=0.5;entryDx=0;entryDy=0;" edge="1" parent="WIyWlLk6GJQsqaUBKTNV-1" source="Lr3nLyAAVqgkOwrDRTjN-62" target="Lr3nLyAAVqgkOwrDRTjN-65">
          <mxGeometry relative="1" as="geometry" />
        </mxCell>
        <mxCell id="Lr3nLyAAVqgkOwrDRTjN-62" value="&quot;Dokümana &lt;br&gt;git&quot; Butonu" style="rhombus;whiteSpace=wrap;html=1;shadow=0;fontFamily=Helvetica;fontSize=12;align=center;strokeWidth=1;spacing=6;spacingTop=-4;fillColor=#f5f5f5;strokeColor=#666666;fontColor=#333333;" vertex="1" parent="WIyWlLk6GJQsqaUBKTNV-1">
          <mxGeometry x="-273" y="114" width="110" height="90" as="geometry" />
        </mxCell>
        <mxCell id="Lr3nLyAAVqgkOwrDRTjN-69" style="edgeStyle=orthogonalEdgeStyle;rounded=0;orthogonalLoop=1;jettySize=auto;html=1;exitX=0.5;exitY=1;exitDx=0;exitDy=0;entryX=1;entryY=0.5;entryDx=0;entryDy=0;" edge="1" parent="WIyWlLk6GJQsqaUBKTNV-1" source="Lr3nLyAAVqgkOwrDRTjN-65" target="Lr3nLyAAVqgkOwrDRTjN-68">
          <mxGeometry relative="1" as="geometry" />
        </mxCell>
        <mxCell id="Lr3nLyAAVqgkOwrDRTjN-65" value="Ekran2.4" style="rounded=1;whiteSpace=wrap;html=1;fontSize=12;glass=0;strokeWidth=1;shadow=0;fillColor=#ffe6cc;strokeColor=#d79b00;" vertex="1" parent="WIyWlLk6GJQsqaUBKTNV-1">
          <mxGeometry x="-120" y="139" width="120" height="40" as="geometry" />
        </mxCell>
        <mxCell id="Lr3nLyAAVqgkOwrDRTjN-70" style="edgeStyle=orthogonalEdgeStyle;rounded=0;orthogonalLoop=1;jettySize=auto;html=1;exitX=0;exitY=0.5;exitDx=0;exitDy=0;" edge="1" parent="WIyWlLk6GJQsqaUBKTNV-1" source="Lr3nLyAAVqgkOwrDRTjN-68" target="Lr3nLyAAVqgkOwrDRTjN-60">
          <mxGeometry relative="1" as="geometry" />
        </mxCell>
        <mxCell id="Lr3nLyAAVqgkOwrDRTjN-68" value="&quot;Cevap Sonuçlarına Dön&quot; Butonu" style="rhombus;whiteSpace=wrap;html=1;shadow=0;fontFamily=Helvetica;fontSize=12;align=center;strokeWidth=1;spacing=6;spacingTop=-4;fillColor=#f5f5f5;strokeColor=#666666;fontColor=#333333;" vertex="1" parent="WIyWlLk6GJQsqaUBKTNV-1">
          <mxGeometry x="-310" y="200" width="110" height="90" as="geometry" />
        </mxCell>
        <mxCell id="Lr3nLyAAVqgkOwrDRTjN-83" style="edgeStyle=orthogonalEdgeStyle;rounded=0;orthogonalLoop=1;jettySize=auto;html=1;exitX=0.5;exitY=1;exitDx=0;exitDy=0;entryX=0.5;entryY=0;entryDx=0;entryDy=0;" edge="1" parent="WIyWlLk6GJQsqaUBKTNV-1" source="Lr3nLyAAVqgkOwrDRTjN-72" target="Lr3nLyAAVqgkOwrDRTjN-73">
          <mxGeometry relative="1" as="geometry" />
        </mxCell>
        <mxCell id="Lr3nLyAAVqgkOwrDRTjN-72" value="Metin Girişi&lt;br&gt;Ekran3.1" style="rounded=1;whiteSpace=wrap;html=1;fontSize=12;glass=0;strokeWidth=1;shadow=0;fillColor=#b0e3e6;strokeColor=#0e8088;" vertex="1" parent="WIyWlLk6GJQsqaUBKTNV-1">
          <mxGeometry x="50" y="570" width="140" height="60" as="geometry" />
        </mxCell>
        <mxCell id="Lr3nLyAAVqgkOwrDRTjN-82" value="tıklanıldı" style="edgeStyle=orthogonalEdgeStyle;rounded=0;orthogonalLoop=1;jettySize=auto;html=1;exitX=1;exitY=0.5;exitDx=0;exitDy=0;entryX=0;entryY=0.5;entryDx=0;entryDy=0;" edge="1" parent="WIyWlLk6GJQsqaUBKTNV-1" source="Lr3nLyAAVqgkOwrDRTjN-73" target="Lr3nLyAAVqgkOwrDRTjN-74">
          <mxGeometry x="-0.0909" y="10" relative="1" as="geometry">
            <mxPoint as="offset" />
          </mxGeometry>
        </mxCell>
        <mxCell id="Lr3nLyAAVqgkOwrDRTjN-73" value="&quot;Ara&quot; Butonu" style="rhombus;whiteSpace=wrap;html=1;shadow=0;fontFamily=Helvetica;fontSize=12;align=center;strokeWidth=1;spacing=6;spacingTop=-4;fillColor=#f5f5f5;strokeColor=#666666;fontColor=#333333;" vertex="1" parent="WIyWlLk6GJQsqaUBKTNV-1">
          <mxGeometry x="70" y="700" width="100" height="80" as="geometry" />
        </mxCell>
        <mxCell id="Lr3nLyAAVqgkOwrDRTjN-74" value="Ekran3.2" style="rounded=1;whiteSpace=wrap;html=1;fontSize=12;glass=0;strokeWidth=1;shadow=0;fillColor=#ffe6cc;strokeColor=#d79b00;" vertex="1" parent="WIyWlLk6GJQsqaUBKTNV-1">
          <mxGeometry x="280" y="700" width="120" height="80" as="geometry" />
        </mxCell>
        <mxCell id="Lr3nLyAAVqgkOwrDRTjN-90" style="edgeStyle=orthogonalEdgeStyle;rounded=0;orthogonalLoop=1;jettySize=auto;html=1;exitX=0.5;exitY=1;exitDx=0;exitDy=0;entryX=0;entryY=0.5;entryDx=0;entryDy=0;" edge="1" parent="WIyWlLk6GJQsqaUBKTNV-1" target="Lr3nLyAAVqgkOwrDRTjN-92">
          <mxGeometry relative="1" as="geometry">
            <mxPoint x="340.00000000000045" y="780" as="sourcePoint" />
            <Array as="points">
              <mxPoint x="340" y="855" />
            </Array>
          </mxGeometry>
        </mxCell>
        <mxCell id="Lr3nLyAAVqgkOwrDRTjN-91" value="tıklanıldı" style="edgeStyle=orthogonalEdgeStyle;rounded=0;orthogonalLoop=1;jettySize=auto;html=1;exitX=1;exitY=0.5;exitDx=0;exitDy=0;entryX=0;entryY=0.5;entryDx=0;entryDy=0;" edge="1" parent="WIyWlLk6GJQsqaUBKTNV-1" source="Lr3nLyAAVqgkOwrDRTjN-92" target="Lr3nLyAAVqgkOwrDRTjN-94">
          <mxGeometry y="15" relative="1" as="geometry">
            <mxPoint as="offset" />
          </mxGeometry>
        </mxCell>
        <mxCell id="Lr3nLyAAVqgkOwrDRTjN-92" value="&quot;Dokümana &lt;br&gt;Git&quot;&amp;nbsp; Butonu" style="rhombus;whiteSpace=wrap;html=1;shadow=0;fontFamily=Helvetica;fontSize=12;align=center;strokeWidth=1;spacing=6;spacingTop=-4;fillColor=#f5f5f5;strokeColor=#666666;fontColor=#333333;" vertex="1" parent="WIyWlLk6GJQsqaUBKTNV-1">
          <mxGeometry x="385" y="800" width="130" height="110" as="geometry" />
        </mxCell>
        <mxCell id="Lr3nLyAAVqgkOwrDRTjN-93" style="edgeStyle=orthogonalEdgeStyle;rounded=0;orthogonalLoop=1;jettySize=auto;html=1;exitX=0.5;exitY=0;exitDx=0;exitDy=0;entryX=0.5;entryY=1;entryDx=0;entryDy=0;" edge="1" parent="WIyWlLk6GJQsqaUBKTNV-1" source="Lr3nLyAAVqgkOwrDRTjN-94" target="Lr3nLyAAVqgkOwrDRTjN-96">
          <mxGeometry relative="1" as="geometry">
            <mxPoint x="695" y="742" as="targetPoint" />
          </mxGeometry>
        </mxCell>
        <mxCell id="Lr3nLyAAVqgkOwrDRTjN-94" value="Doküman Detay Gösterimi&amp;nbsp;&lt;br&gt;Ekran3.3" style="rounded=1;whiteSpace=wrap;html=1;fontSize=12;glass=0;strokeWidth=1;shadow=0;fillColor=#ffe6cc;strokeColor=#d79b00;" vertex="1" parent="WIyWlLk6GJQsqaUBKTNV-1">
          <mxGeometry x="595" y="815" width="110" height="80" as="geometry" />
        </mxCell>
        <mxCell id="Lr3nLyAAVqgkOwrDRTjN-95" value="tıklanıldı" style="edgeStyle=orthogonalEdgeStyle;rounded=0;orthogonalLoop=1;jettySize=auto;html=1;entryX=1;entryY=0.5;entryDx=0;entryDy=0;" edge="1" parent="WIyWlLk6GJQsqaUBKTNV-1" source="Lr3nLyAAVqgkOwrDRTjN-96" target="Lr3nLyAAVqgkOwrDRTjN-74">
          <mxGeometry x="0.027" y="-10" relative="1" as="geometry">
            <mxPoint x="696.0000000000005" y="615" as="sourcePoint" />
            <mxPoint x="340.00000000000045" y="700" as="targetPoint" />
            <mxPoint as="offset" />
          </mxGeometry>
        </mxCell>
        <mxCell id="Lr3nLyAAVqgkOwrDRTjN-96" value="&quot;Arama &lt;br&gt;Sonuçlarına Dön&quot; Butonu" style="rhombus;whiteSpace=wrap;html=1;shadow=0;fontFamily=Helvetica;fontSize=12;align=center;strokeWidth=1;spacing=6;spacingTop=-4;fillColor=#f5f5f5;strokeColor=#666666;fontColor=#333333;" vertex="1" parent="WIyWlLk6GJQsqaUBKTNV-1">
          <mxGeometry x="585" y="685" width="130" height="110" as="geometry" />
        </mxCell>
      </root>
    </mxGraphModel>
  </diagram>
</mxfile>
